<svg width="22" height="26" viewBox="0 0 22 26" fill="none" xmlns="http://www.w3.org/2000/svg">
<path d="M14.8252 25.1321V20.6662C14.8618 20.116 14.799 19.5628 14.6411 19.0435C14.4832 18.5242 14.2337 18.0507 13.9093 17.6544C16.9688 17.2505 20.1842 15.8772 20.1842 9.57651C20.184 7.96536 19.6607 6.41599 18.7227 5.24909C19.1668 3.83952 19.1354 2.28146 18.635 0.898594C18.635 0.898594 17.4852 0.494702 14.8252 2.60648C12.592 1.88966 10.2379 1.88966 8.00472 2.60648C5.34472 0.494702 4.19497 0.898594 4.19497 0.898594C3.69452 2.28146 3.66311 3.83952 4.10728 5.24909C3.16228 6.42465 2.63846 7.98802 2.64574 9.61113C2.64574 15.8657 5.86113 17.2389 8.92061 17.689C8.60005 18.0813 8.35282 18.5492 8.19502 19.0621C8.03722 19.5751 7.97238 20.1216 8.00472 20.6662V25.1321M8.00472 21.6702C3.13292 23.4012 3.13292 18.7853 1.1842 18.2083L8.00472 21.6702Z" stroke="#111827" stroke-width="1.7" stroke-linecap="round" stroke-linejoin="round"/>
</svg>
