<svg width="21" height="26" viewBox="0 0 21 26" fill="none" xmlns="http://www.w3.org/2000/svg">
<path d="M14.641 25V20.5828C14.6776 20.0385 14.6148 19.4914 14.4569 18.9777C14.299 18.4641 14.0495 17.9957 13.7251 17.6037C16.7846 17.2042 20 15.846 20 9.61392C19.9997 8.02032 19.4765 6.48785 18.5385 5.33366C18.9826 3.93945 18.9512 2.39838 18.4508 1.03058C18.4508 1.03058 17.301 0.631091 14.641 2.71986C12.4078 2.01084 10.0537 2.01084 7.82051 2.71986C5.16051 0.631091 4.01077 1.03058 4.01077 1.03058C3.51032 2.39838 3.47891 3.93945 3.92308 5.33366C2.97807 6.49641 2.45425 8.04274 2.46154 9.64816C2.46154 15.8346 5.67692 17.1928 8.73641 17.638C8.41584 18.026 8.16862 18.4888 8.01081 18.9961C7.85301 19.5035 7.78817 20.0441 7.82051 20.5828V25M7.82051 21.5758C2.94872 23.2879 2.94872 18.7223 1 18.1516L7.82051 21.5758Z" stroke="#111827" stroke-width="1.7" stroke-linecap="round" stroke-linejoin="round"/>
</svg>
