<svg width="25" height="24" viewBox="0 0 25 24" fill="none" xmlns="http://www.w3.org/2000/svg">
<path d="M17.1842 2H7.1842C4.42278 2 2.1842 4.23858 2.1842 7V17C2.1842 19.7614 4.42278 22 7.1842 22H17.1842C19.9456 22 22.1842 19.7614 22.1842 17V7C22.1842 4.23858 19.9456 2 17.1842 2Z" stroke="#111827" stroke-width="1.7" stroke-linecap="round" stroke-linejoin="round"/>
<path d="M16.1842 11.3701C16.3076 12.2023 16.1655 13.0523 15.778 13.7991C15.3905 14.5459 14.7774 15.1515 14.0258 15.5297C13.2743 15.908 12.4227 16.0397 11.592 15.906C10.7613 15.7723 9.99396 15.3801 9.39904 14.7852C8.80412 14.1903 8.41194 13.4229 8.27827 12.5923C8.14461 11.7616 8.27627 10.91 8.65453 10.1584C9.03279 9.40691 9.63839 8.7938 10.3852 8.4063C11.132 8.0188 11.982 7.87665 12.8142 8.00006C13.6631 8.12594 14.4491 8.52152 15.0559 9.12836C15.6627 9.73521 16.0583 10.5211 16.1842 11.3701Z" stroke="#111827" stroke-width="1.7" stroke-linecap="round" stroke-linejoin="round"/>
<path d="M17.6842 6.5H17.6942" stroke="#111827" stroke-width="1.7" stroke-linecap="round" stroke-linejoin="round"/>
</svg>
