<svg width="25" height="24" viewBox="0 0 25 24" fill="none" xmlns="http://www.w3.org/2000/svg">
<path d="M17.0263 8.03955C18.827 8.03955 20.5539 8.75487 21.8272 10.0281C23.1005 11.3014 23.8158 13.0283 23.8158 14.829V22.7501H19.2895V14.829C19.2895 14.2288 19.051 13.6532 18.6266 13.2287C18.2022 12.8043 17.6265 12.5659 17.0263 12.5659C16.4261 12.5659 15.8504 12.8043 15.426 13.2287C15.0016 13.6532 14.7632 14.2288 14.7632 14.829V22.7501H10.2368V14.829C10.2368 13.0283 10.9522 11.3014 12.2254 10.0281C13.4987 8.75487 15.2256 8.03955 17.0263 8.03955V8.03955Z" stroke="#111827" stroke-width="1.7" stroke-linecap="round" stroke-linejoin="round"/>
<path d="M5.71052 9.17114H1.1842V22.7501H5.71052V9.17114Z" stroke="#111827" stroke-width="1.7" stroke-linecap="round" stroke-linejoin="round"/>
<path d="M3.44736 5.77632C4.69727 5.77632 5.71052 4.76307 5.71052 3.51316C5.71052 2.26325 4.69727 1.25 3.44736 1.25C2.19745 1.25 1.1842 2.26325 1.1842 3.51316C1.1842 4.76307 2.19745 5.77632 3.44736 5.77632Z" stroke="#111827" stroke-width="1.7" stroke-linecap="round" stroke-linejoin="round"/>
</svg>
